<?xml version="1.0" encoding="UTF-8" standalone="no"?>
<!-- Created with Inkscape (http://www.inkscape.org/) -->

<svg
   width="23.283333mm"
   height="8.2020836mm"
   viewBox="0 0 23.283333 8.2020836"
   version="1.1"
   id="svg1"
   xml:space="preserve"
   xmlns:xlink="http://www.w3.org/1999/xlink"
   xmlns="http://www.w3.org/2000/svg"
   xmlns:svg="http://www.w3.org/2000/svg"><defs
     id="defs1"><linearGradient
       id="linearGradient1"><stop
         style="stop-color:#161625;stop-opacity:1;"
         offset="0"
         id="stop1" /><stop
         style="stop-color:#23233d;stop-opacity:1;"
         offset="1"
         id="stop2" /></linearGradient><linearGradient
       xlink:href="#linearGradient1"
       id="linearGradient2"
       x1="173.63899"
       y1="151.06097"
       x2="173.55962"
       y2="159.49812"
       gradientUnits="userSpaceOnUse"
       gradientTransform="matrix(0.99993716,0,0,0.99962565,0.01083322,0.05762567)" /><rect
       x="84.329529"
       y="236.12267"
       width="455.37943"
       height="211.7608"
       id="rect2" /><rect
       x="86.203514"
       y="410.40369"
       width="429.14359"
       height="269.85449"
       id="rect1-6" /></defs><g
     id="layer1"
     transform="translate(-161.89757,-151.09262)"><rect
       style="fill:url(#linearGradient2);fill-opacity:1;stroke-width:20.5015"
       id="rect1"
       width="23.282938"
       height="8.1991253"
       x="161.89877"
       y="151.09505" /><g
       id="layer1-2"
       transform="matrix(0.04159052,0,0,0.04159052,162.52866,150.73049)"><text
         xml:space="preserve"
         transform="scale(0.26458333)"
         id="text1"
         style="font-style:normal;font-variant:normal;font-weight:normal;font-stretch:normal;font-family:'Redaction 20';-inkscape-font-specification:'Redaction 20, ';white-space:pre;shape-inside:url(#rect1-6);display:inline;fill:#ffffff;stroke-width:77.503" /><g
         id="text2"
         style="font-family:'Redaction 20';-inkscape-font-specification:'Redaction 20, ';white-space:pre;fill:#ffffff;stroke-width:77.503"
         transform="matrix(6.4731638,0,0,6.4731638,-548.36656,-1470.0995)"
         aria-label="thecatratproject"><path
           style="fill-opacity:0.493776"
           d="m 87.450078,241.58305 h -0.48 v -0.24 h 2.16 v -0.48 h -1.44 v -0.48 h 0.24 v -0.48 h 0.24 v -0.48 h -0.24 v 0.24 h -0.24 v 0.24 h -0.48 v 0.24 h -0.24 v 0.24 h -0.24 v 0.24 h -0.24 v 0.24 h -0.48 v 0.24 h -0.48 v 0.24 h 0.72 v 0.72 h -0.24 v 0.72 h -0.24 v 0.48 h -0.24 v 0.72 h -0.24 v 0.48 h -0.24 v 0.72 h -0.24 v 1.2 h 0.24 v 0.24 h 1.44 v -0.24 h 0.24 v -0.24 h 0.24 v -0.24 h 0.24 v -0.24 h 0.24 v -0.24 h -0.24 v 0.24 h -0.48 v 0.24 h -0.48 v -0.24 h -0.24 v -0.72 h 0.24 v -0.72 h 0.24 v -0.72 h 0.24 v -0.48 h 0.24 v -0.72 h 0.24 v -0.48 h 0.24 z m 1.920002,4.8 h 0.24 v -0.72 h 0.24 v -0.48 h 0.24 v -0.72 h 0.24 v -0.72 h 0.24 v -0.24 h 0.24 v -0.48 h -0.24 v -0.48 h 0.24 v -0.24 h 0.24 v -0.24 h 0.24 v -0.72 h 0.24 v -0.48 h 0.24 v -0.72 h 0.24 v -0.48 h 0.24 v -0.72 h 0.24 v -0.72 h 0.24 v -0.24 h -0.48 v 0.24 h -1.44 v 0.48 h 0.48 v 0.72 h -0.24 v 0.48 h -0.24 v 0.72 h -0.24 v 0.48 h -0.24 v 0.72 h -0.24 v 0.48 h -0.24 v 0.72 h -0.24 v 0.72 h -0.24 v 0.48 h -0.24 v 0.72 h -0.24 v 0.48 h -0.24 v 0.72 h -0.24 v 0.48 h 0.96 z m 1.68,-3.6 h 0.24 v -0.24 h 0.24 v -0.24 h 0.24 v -0.24 h 0.24 v -0.24 h 0.48 v -0.24 h 0.96 v 0.72 h -0.24 v 0.48 h -0.24 v 0.72 h -0.24 v 0.48 h -0.24 v 0.72 h -0.24 v 0.48 h -0.24 v 1.44 h 1.2 v -0.24 h 0.48 v -0.24 h 0.24 v -0.24 h 0.24 v -0.24 h 0.24 v -0.24 h 0.24 v -0.24 h -0.24 v 0.24 h -0.24 v 0.24 h -0.48 v 0.24 h -0.72 v -0.48 h 0.24 v -0.48 h 0.24 v -0.72 h 0.24 v -0.48 h 0.24 v -0.72 h 0.24 v -0.48 h 0.24 v -1.44 h -0.48 v -0.24 h -1.2 v 0.24 h -0.24 v 0.24 h -0.48 v 0.24 h -0.24 v 0.24 h -0.24 v 0.24 h -0.24 v 0.24 h -0.24 v 0.48 h -0.24 v 0.24 h 0.24 z m 8.400011,2.4 h -0.24 v 0.24 h -0.24 v 0.24 h -0.48 v 0.24 h -1.44 v -0.24 h -0.24 v -0.24 h -0.24 v -0.72 h -0.24 v -0.72 h -0.24 v -0.24 h 1.68 v -0.24 h 0.96 v -0.24 h 0.48 v -0.24 h 0.24 v -0.24 h 0.24 v -0.24 h 0.24 v -0.24 h 0.239999 v -0.72 h -0.239999 v -0.24 h -0.24 v -0.24 h -0.48 v -0.24 h -1.44 v 0.24 h -0.48 v 0.24 h -0.48 v 0.24 h -0.24 v 0.24 h -0.24 v 0.24 h -0.24 v 0.24 h -0.24 v 0.48 h -0.24 v 0.48 h -0.24 v 1.2 h -0.24 v 0.48 h 0.24 v 0.72 h 0.24 v 0.48 h 0.24 v 0.24 h 0.48 v 0.24 h 1.92 v -0.24 h 0.24 v -0.24 h 0.24 v -0.24 h 0.24 v -0.24 h 0.24 v -0.24 h 0.24 z m -2.88,-1.68 v -0.48 h 0.24 v -0.48 h 0.24 v -0.48 h 0.24 v -0.24 h 0.24 v -0.24 h 0.24 v -0.24 h 1.2 v 0.24 h 0.24 v 0.72 h -0.24 v 0.24 h -0.24 v 0.24 h -0.24 v 0.24 h -0.48 v 0.24 h -1.2 v 0.24 z"
           id="path4" /><path
           d="m 103.29009,246.38305 h 0.24 v -0.24 h 0.24 v -0.24 h 0.24 v -0.24 h 0.24 v -0.24 h 0.24 v -0.24 h -0.24 v 0.24 h -0.24 v 0.24 h -0.48 v 0.24 h -1.44 v -0.24 h -0.24 v -0.24 h -0.24 v -0.72 h -0.24 v -0.72 h 0.24 v -0.96 h 0.24 v -0.48 h 0.24 v -0.24 h 0.24 v -0.48 h 0.24 v -0.24 h 0.48 v -0.24 h 0.96 v 0.24 h 0.24 v 0.48 h -0.24 v 0.72 h 0.48 v 0.24 h 0.24 v -0.24 h 0.24 v -0.24 h 0.24 v -0.96 h -0.24 v -0.24 h -0.24 v -0.24 h -0.48 v -0.24 h -1.44 v 0.24 h -0.48 v 0.24 h -0.48 v 0.24 h -0.24 v 0.24 h -0.24 v 0.24 h -0.24 v 0.48 h -0.24 v 0.48 h -0.24 v 0.48 h -0.24 v 2.16 h 0.24 v 0.48 h 0.24 v 0.24 h 0.48 v 0.24 h 1.92 z m 4.08,0 h 0.24 v -0.24 h 0.24 v -0.24 h 0.24 v -0.24 h 0.24 v -0.24 h 0.24 v -0.24 h 0.24 v 0.24 h -0.24 v 0.48 h -0.24 v 0.48 h 0.24 v 0.24 h 1.2 v -0.24 h 0.24 v -0.24 h 0.48 v -0.24 h 0.24 v -0.48 h 0.24 v -0.24 h -0.24 v 0.24 h -0.24 v 0.24 h -0.24 v 0.24 h -0.72 v -0.72 h 0.24 v -0.72 h 0.24 v -0.48 h 0.24 v -0.72 h 0.24 v -0.48 h 0.24 v -0.72 h 0.24 v -0.48 h 0.24 v -0.48 h -0.72 v 0.24 h -0.24 v -0.24 h -0.72 v -0.24 h -1.2 v 0.24 h -0.72 v 0.24 h -0.48 v 0.24 h -0.24 v 0.24 h -0.24 v 0.24 h -0.24 v 0.24 h -0.24 v 0.24 h -0.24 v 0.48 h -0.24 v 0.48 h -0.24 v 0.48 h -0.24 v 1.92 h 0.24 v 0.24 h 0.24 v 0.24 h 0.24 v 0.24 h 1.44 z m -0.72,-0.48 v -0.24 h -0.24 v -1.92 h 0.24 v -0.72 h 0.24 v -0.24 h 0.24 v -0.48 h 0.24 v -0.24 h 0.24 v -0.24 h 0.24 v -0.24 h 0.48 v -0.24 h 1.2 v 0.24 h 0.24 v 0.96 h -0.24 v 0.48 h -0.24 v 0.72 h -0.24 v 0.48 h -0.24 v 0.48 h -0.24 v 0.24 h -0.24 v 0.24 h -0.24 v 0.24 h -0.24 v 0.24 h -0.24 v 0.24 z m 2.4,-1.2 v 0.24 h -0.24 v -0.24 z m 5.52001,-3.12 h -0.48 v -0.24 h 2.16 v -0.48 h -1.44 v -0.48 h 0.24 v -0.48 h 0.24 v -0.48 h -0.24 v 0.24 h -0.24 v 0.24 h -0.48 v 0.24 h -0.24 v 0.24 h -0.24 v 0.24 h -0.24 v 0.24 h -0.48 v 0.24 h -0.48 v 0.24 h 0.72 v 0.72 h -0.24 v 0.72 h -0.24 v 0.48 h -0.24 v 0.72 h -0.24 v 0.48 h -0.24 v 0.72 h -0.24 v 1.2 h 0.24 v 0.24 h 1.44 v -0.24 h 0.24 v -0.24 h 0.24 v -0.24 h 0.24 v -0.24 h 0.24 v -0.24 h -0.24 v 0.24 h -0.48 v 0.24 h -0.48 v -0.24 h -0.24 v -0.72 h 0.24 v -0.72 h 0.24 v -0.72 h 0.24 v -0.48 h 0.24 v -0.72 h 0.24 v -0.48 h 0.24 z m 1.92001,4.8 h 0.24 v -0.48 h 0.24 v -0.72 h 0.24 v -0.48 h 0.24 v -0.72 h 0.24 v -0.48 h 0.24 v -0.24 h 0.24 v -0.48 h 0.24 v -0.24 h 0.24 v -0.24 h 0.24 v -0.24 h 0.24 v -0.24 h 0.24 v -0.24 h 0.72 v 0.24 h -0.24 v 0.48 h 0.24 v 0.24 h 0.72 v -0.24 h 0.24 v -1.2 h -0.48 v -0.24 h -0.72 v 0.24 h -0.48 v 0.24 h -0.24 v 0.24 h -0.24 v 0.24 h -0.24 v 0.24 h -0.24 v 0.24 h -0.24 v 0.48 h -0.24 v 0.24 h -0.24 v -0.48 h 0.24 v -0.24 h 0.24 v -0.24 h 0.24 v -0.48 h 0.24 v -0.72 h -0.72 v 0.24 h -1.2 v 0.24 h 0.24 v 0.24 h 0.24 v 0.96 h -0.24 v 0.48 h -0.24 v 0.72 h -0.24 v 0.72 h -0.24 v 0.48 h -0.24 v 0.72 h -0.24 v 0.48 h -0.24 v 0.48 h 0.96 z m 6.48,0 h 0.24 v -0.24 h 0.24 v -0.24 h 0.24 v -0.24 h 0.24 v -0.24 h 0.24 v -0.24 h 0.24 v 0.24 h -0.24 v 0.48 h -0.24 v 0.48 h 0.24 v 0.24 h 1.2 v -0.24 h 0.24 v -0.24 h 0.48 v -0.24 h 0.24 v -0.48 h 0.24 v -0.24 h -0.24 v 0.24 h -0.24 v 0.24 h -0.24 v 0.24 h -0.72 v -0.72 h 0.24 v -0.72 h 0.24 v -0.48 h 0.24 v -0.72 h 0.24 v -0.48 h 0.24 v -0.72 h 0.24 v -0.48 h 0.24 v -0.48 h -0.72 v 0.24 h -0.24 v -0.24 h -0.72 v -0.24 h -1.2 v 0.24 h -0.72 v 0.24 h -0.48 v 0.24 h -0.24 v 0.24 h -0.24 v 0.24 h -0.24 v 0.24 h -0.24 v 0.24 h -0.24 v 0.48 h -0.24 v 0.48 h -0.24 v 0.48 h -0.24 v 1.92 h 0.24 v 0.24 h 0.24 v 0.24 h 0.24 v 0.24 h 1.44 z m -0.72,-0.48 v -0.24 h -0.24 v -1.92 h 0.24 v -0.72 h 0.24 v -0.24 h 0.24 v -0.48 h 0.24 v -0.24 h 0.24 v -0.24 h 0.24 v -0.24 h 0.48 v -0.24 h 1.2 v 0.24 h 0.24 v 0.96 h -0.24 v 0.48 h -0.24 v 0.72 h -0.24 v 0.48 h -0.24 v 0.48 h -0.24 v 0.24 h -0.24 v 0.24 h -0.24 v 0.24 h -0.24 v 0.24 h -0.24 v 0.24 z m 2.4,-1.2 v 0.24 h -0.24 v -0.24 z m 5.52001,-3.12 h -0.48 v -0.24 h 2.16 v -0.48 h -1.44 v -0.48 h 0.24 v -0.48 h 0.24 v -0.48 h -0.24 v 0.24 h -0.24 v 0.24 h -0.48 v 0.24 h -0.24 v 0.24 h -0.24 v 0.24 h -0.24 v 0.24 h -0.48 v 0.24 h -0.48 v 0.24 h 0.72 v 0.72 h -0.24 v 0.72 h -0.24 v 0.48 h -0.24 v 0.72 h -0.24 v 0.48 h -0.24 v 0.72 h -0.24 v 1.2 h 0.24 v 0.24 h 1.44 v -0.24 h 0.24 v -0.24 h 0.24 v -0.24 h 0.24 v -0.24 h 0.24 v -0.24 h -0.24 v 0.24 h -0.48 v 0.24 h -0.48 v -0.24 h -0.24 v -0.72 h 0.24 v -0.72 h 0.24 v -0.72 h 0.24 v -0.48 h 0.24 v -0.72 h 0.24 v -0.48 h 0.24 z"
           id="path5" /><path
           style="fill-opacity:0.5"
           d="m 133.77012,242.30305 v -0.24 h 0.24 v -0.48 h 0.24 v -0.48 h 0.24 v -0.24 h -0.96 v 0.24 h -1.2 v 0.24 h 0.48 v 0.48 h 0.24 v 0.24 h -0.24 v 0.72 h -0.24 v 0.72 h -0.24 v 0.48 h -0.24 v 0.72 h -0.24 v 0.48 h -0.24 v 0.72 h -0.24 v 0.48 h -0.24 v 0.72 h -0.24 v 0.72 h -0.24 v 0.48 h -0.24 v 0.48 h -0.24 v 0.24 h -0.72 v 0.24 h -0.24 v 0.24 h 3.12 v -0.48 h -0.72 v -0.96 h 0.24 v -0.72 h 0.24 v -0.48 h 0.24 v -0.72 h 0.24 v 0.24 h 0.72 v 0.24 h 1.68 v -0.24 h 0.48 v -0.24 h 0.48 v -0.24 h 0.24 v -0.24 h 0.24 v -0.24 h 0.24 v -0.48 h 0.24 v -0.24 h 0.24 v -0.48 h 0.24 v -0.72 h 0.24 v -1.68 h -0.24 v -0.24 h -0.24 v -0.48 h -0.48 v -0.24 h -1.2 v 0.24 h -0.24 v 0.24 h -0.48 v 0.24 h -0.24 v 0.24 h -0.24 v 0.24 h -0.24 v 0.48 h -0.24 v 0.24 h -0.24 v -0.48 z m 0,0.72 h 0.24 v -0.24 h 0.24 v -0.48 h 0.24 v -0.24 h 0.48 v -0.24 h 0.24 v -0.24 h 0.96 v 0.24 h 0.24 v 1.92 h -0.24 v 0.72 h -0.24 v 0.48 h -0.24 v 0.24 h -0.24 v 0.24 h -0.24 v 0.24 h -0.24 v 0.24 h -0.48 v 0.24 h -1.2 v -0.24 h -0.48 v -0.96 h 0.24 v -0.72 h 0.24 v -0.48 h 0.24 v -0.48 h -0.24 v -0.24 h 0.24 v 0.24 h 0.24 z m 5.03999,3.36 h 0.24 v -0.48 h 0.24 v -0.72 h 0.24 v -0.48 h 0.24 v -0.72 h 0.24 v -0.48 h 0.24 v -0.24 h 0.24 v -0.48 h 0.24 v -0.24 h 0.24 v -0.24 h 0.24 v -0.24 h 0.24 v -0.24 h 0.24 v -0.24 h 0.72 v 0.24 h -0.24 v 0.48 h 0.24 v 0.24 h 0.72 v -0.24 h 0.24 v -1.2 h -0.48 v -0.24 h -0.72 v 0.24 h -0.48 v 0.24 h -0.24 v 0.24 h -0.24 v 0.24 h -0.24 v 0.24 h -0.24 v 0.24 h -0.24 v 0.48 h -0.24 v 0.24 h -0.24 v -0.48 h 0.24 v -0.24 h 0.24 v -0.24 h 0.24 v -0.48 h 0.24 v -0.72 h -0.72 v 0.24 h -1.2 v 0.24 h 0.24 v 0.24 h 0.24 v 0.96 h -0.24 v 0.48 h -0.24 v 0.72 h -0.24 v 0.72 h -0.24 v 0.48 h -0.24 v 0.72 h -0.24 v 0.48 h -0.24 v 0.48 h 0.96 z m 7.44,0 h 0.48 v -0.24 h 0.24 v -0.24 h 0.48 v -0.48 h 0.24 v -0.24 h 0.24 v -0.24 h 0.24 v -0.72 h 0.24 v -0.96 h 0.24 v -0.48 h -0.24 v -0.96 h -0.24 v -0.24 h -0.24 v -0.24 h -0.24 v -0.24 h -0.48 v -0.24 h -1.44 v 0.24 h -0.48 v 0.24 h -0.48 v 0.24 h -0.24 v 0.24 h -0.24 v 0.24 h -0.24 v 0.24 h -0.24 v 0.48 h -0.24 v 0.48 h -0.24 v 0.96 h -0.24 v 0.96 h 0.24 v 0.72 h 0.24 v 0.24 h 0.24 v 0.24 h 0.48 v 0.24 h 1.92 z m -1.68,-0.24 v -0.48 h -0.24 v -1.68 h 0.24 v -0.72 h 0.24 v -0.72 h 0.24 v -0.24 h 0.24 v -0.48 h 0.48 v -0.24 h 0.24 v -0.24 h 0.96 v 0.24 h 0.24 v 0.48 h 0.24 v 1.44 h -0.24 v 0.96 h -0.24 v 0.48 h -0.24 v 0.48 h -0.24 v 0.24 h -0.24 v 0.24 h -0.24 v 0.24 z m 6.96,-6.48 h 1.2 v -0.48 h 0.24 v -0.48 h 0.24 v -0.24 h -1.2 v 0.24 h -0.24 v 0.72 h -0.24 z m -3.6,9.6 h 0.48 v -0.24 h 0.24 v -0.24 h 0.24 v -0.24 h 0.24 v -0.24 h 0.24 v -0.48 h 0.24 v -0.72 h 0.24 v -0.48 h 0.24 v -0.72 h 0.24 v -0.48 h 0.24 v -0.72 h 0.24 v -0.48 h 0.24 v -0.72 h 0.24 v -0.72 h 0.24 v -0.48 h 0.24 v -0.72 h 0.24 v -0.48 h 0.24 v -0.24 h -0.96 v 0.24 h -1.2 v 0.24 h 0.24 v 0.24 h 0.24 v 0.96 h -0.24 v 0.72 h -0.24 v 0.48 h -0.24 v 0.72 h -0.24 v 0.72 h -0.24 v 0.48 h -0.24 v 0.72 h -0.24 v 0.48 h -0.24 v 0.72 h -0.24 v 0.72 h -0.24 v 0.24 h -0.24 v 0.24 h -0.24 v 0.24 h -0.72 v -0.48 h 0.24 v -0.48 h -0.24 v -0.24 h -0.24 v 0.24 h -0.48 v 0.96 h 0.24 v 0.24 h 0.48 v 0.24 h 0.96 z m 8.64001,-4.08 h -0.24 v 0.24 h -0.24 v 0.24 h -0.48 v 0.24 h -1.44 v -0.24 h -0.24 v -0.24 h -0.24 v -0.72 h -0.24 v -0.72 h -0.24 v -0.24 h 1.68 v -0.24 h 0.96 v -0.24 h 0.48 v -0.24 h 0.24 v -0.24 h 0.24 v -0.24 h 0.24 v -0.24 h 0.24 v -0.72 h -0.24 v -0.24 h -0.24 v -0.24 h -0.48 v -0.24 h -1.44 v 0.24 h -0.48 v 0.24 h -0.48 v 0.24 h -0.24 v 0.24 h -0.24 v 0.24 h -0.24 v 0.24 h -0.24 v 0.48 h -0.24 v 0.48 h -0.24 v 1.2 h -0.24 v 0.48 h 0.24 v 0.72 h 0.24 v 0.48 h 0.24 v 0.24 h 0.48 v 0.24 h 1.92 v -0.24 h 0.24 v -0.24 h 0.24 v -0.24 h 0.24 v -0.24 h 0.24 v -0.24 h 0.24 z m -2.88,-1.68 v -0.48 h 0.24 v -0.48 h 0.24 v -0.48 h 0.24 v -0.24 h 0.24 v -0.24 h 0.24 v -0.24 h 1.2 v 0.24 h 0.24 v 0.72 h -0.24 v 0.24 h -0.24 v 0.24 h -0.24 v 0.24 h -0.48 v 0.24 h -1.2 v 0.24 z m 6.72,2.88 h 0.24 v -0.24 h 0.24 v -0.24 h 0.24 v -0.24 h 0.24 v -0.24 h 0.24 v -0.24 h -0.24 v 0.24 h -0.24 v 0.24 h -0.48 v 0.24 h -1.44 v -0.24 h -0.24 v -0.24 h -0.24 v -0.72 h -0.24 v -0.72 h 0.24 v -0.96 h 0.24 v -0.48 h 0.24 v -0.24 h 0.24 v -0.48 h 0.24 v -0.24 h 0.48 v -0.24 h 0.96 v 0.24 h 0.24 v 0.48 h -0.24 v 0.72 h 0.48 v 0.24 h 0.24 v -0.24 h 0.24 v -0.24 h 0.24 v -0.96 h -0.24 v -0.24 h -0.24 v -0.24 h -0.48 v -0.24 h -1.44 v 0.24 h -0.48 v 0.24 h -0.48 v 0.24 h -0.24 v 0.24 h -0.24 v 0.24 h -0.24 v 0.48 h -0.24 v 0.48 h -0.24 v 0.48 h -0.24 v 2.16 h 0.24 v 0.48 h 0.24 v 0.24 h 0.48 v 0.24 h 1.92 z m 4.8,-4.8 h -0.48 v -0.24 h 2.16 v -0.48 h -1.44 v -0.48 h 0.24 v -0.48 h 0.24 v -0.48 h -0.24 v 0.24 h -0.24 v 0.24 h -0.48 v 0.24 h -0.24 v 0.24 h -0.24 v 0.24 h -0.24 v 0.24 h -0.48 v 0.24 h -0.48 v 0.24 h 0.72 v 0.72 h -0.24 v 0.72 h -0.24 v 0.48 h -0.24 v 0.72 h -0.24 v 0.48 h -0.24 v 0.72 h -0.24 v 1.2 h 0.24 v 0.24 h 1.44 v -0.24 h 0.24 v -0.24 h 0.24 v -0.24 h 0.24 v -0.24 h 0.24 v -0.24 h -0.24 v 0.24 h -0.48 v 0.24 h -0.48 v -0.24 h -0.24 v -0.72 h 0.24 v -0.72 h 0.24 v -0.72 h 0.24 v -0.48 h 0.24 v -0.72 h 0.24 v -0.48 h 0.24 z"
           id="path6" /></g></g><rect
       style="fill:#161625;fill-opacity:1;stroke-width:30.2487"
       id="rect3"
       width="23.2868"
       height="0.7343657"
       x="161.89757"
       y="158.56709" /><rect
       style="fill:#161625;fill-opacity:1;stroke-width:20.506"
       id="rect4"
       width="0.66145933"
       height="8.5493431"
       x="184.55252"
       y="151.043" /><rect
       style="fill:#323255;fill-opacity:1;stroke-width:20.506;stroke:none;stroke-opacity:1"
       id="rect4-3"
       width="0.66145933"
       height="8.5493431"
       x="161.89757"
       y="150.86111" /><rect
       style="fill:#323255;fill-opacity:1;stroke-width:36.3944"
       id="rect4-3-7"
       width="22.919533"
       height="0.77720773"
       x="162.29443"
       y="150.92726" /></g></svg>
